<svg xmlns="http://www.w3.org/2000/svg" version="1.1" xmlns:xlink="http://www.w3.org/1999/xlink" xmlns:svgjs="http://svgjs.dev/svgjs" viewBox="0 0 800 800"><g fill="none" stroke-width="3" stroke="hsl(231, 100%, 64%)" stroke-linecap="round" transform="matrix(2.1,0,0,2.1,-440.0000041961671,-440.0000041961671)"><line x1="282.5" y1="400" x2="517.5" y2="400" transform="rotate(0, 400, 400)" opacity="0.59"></line><line x1="675.5" y1="400" x2="124.5" y2="400" transform="rotate(3, 400, 400)" opacity="0.89"></line><line x1="558.5" y1="400" x2="241.5" y2="400" transform="rotate(6, 400, 400)" opacity="0.85"></line><line x1="56" y1="400" x2="744" y2="400" transform="rotate(9, 400, 400)" opacity="0.51"></line><line x1="522" y1="400" x2="278" y2="400" transform="rotate(12, 400, 400)" opacity="0.56"></line><line x1="342.5" y1="400" x2="457.5" y2="400" transform="rotate(15, 400, 400)" opacity="0.46"></line><line x1="380" y1="400" x2="420" y2="400" transform="rotate(18, 400, 400)" opacity="0.97"></line><line x1="107.5" y1="400" x2="692.5" y2="400" transform="rotate(21, 400, 400)" opacity="0.29"></line><line x1="307" y1="400" x2="493" y2="400" transform="rotate(24, 400, 400)" opacity="0.57"></line><line x1="177" y1="400" x2="623" y2="400" transform="rotate(27, 400, 400)" opacity="0.95"></line><line x1="275" y1="400" x2="525" y2="400" transform="rotate(30, 400, 400)" opacity="0.32"></line><line x1="602" y1="400" x2="198" y2="400" transform="rotate(33, 400, 400)" opacity="0.12"></line><line x1="284.5" y1="400" x2="515.5" y2="400" transform="rotate(36, 400, 400)" opacity="0.95"></line><line x1="94.5" y1="400" x2="705.5" y2="400" transform="rotate(39, 400, 400)" opacity="0.16"></line><line x1="233.5" y1="400" x2="566.5" y2="400" transform="rotate(42, 400, 400)" opacity="0.34"></line><line x1="387.5" y1="400" x2="412.5" y2="400" transform="rotate(45, 400, 400)" opacity="0.75"></line><line x1="496" y1="400" x2="304" y2="400" transform="rotate(48, 400, 400)" opacity="0.61"></line><line x1="557.5" y1="400" x2="242.5" y2="400" transform="rotate(51, 400, 400)" opacity="0.87"></line><line x1="263.5" y1="400" x2="536.5" y2="400" transform="rotate(54, 400, 400)" opacity="0.71"></line><line x1="405.5" y1="400" x2="394.5" y2="400" transform="rotate(57, 400, 400)" opacity="0.16"></line><line x1="534.5" y1="400" x2="265.5" y2="400" transform="rotate(60, 400, 400)" opacity="0.38"></line><line x1="410.5" y1="400" x2="389.5" y2="400" transform="rotate(63, 400, 400)" opacity="0.40"></line><line x1="118" y1="400" x2="682" y2="400" transform="rotate(66, 400, 400)" opacity="0.46"></line><line x1="543.5" y1="400" x2="256.5" y2="400" transform="rotate(69, 400, 400)" opacity="0.82"></line><line x1="715" y1="400" x2="85" y2="400" transform="rotate(72, 400, 400)" opacity="0.82"></line><line x1="384.5" y1="400" x2="415.5" y2="400" transform="rotate(75, 400, 400)" opacity="0.25"></line><line x1="380" y1="400" x2="420" y2="400" transform="rotate(78, 400, 400)" opacity="0.09"></line><line x1="105.5" y1="400" x2="694.5" y2="400" transform="rotate(81, 400, 400)" opacity="0.68"></line><line x1="308" y1="400" x2="492" y2="400" transform="rotate(84, 400, 400)" opacity="0.19"></line><line x1="710" y1="400" x2="90" y2="400" transform="rotate(87, 400, 400)" opacity="0.36"></line><line x1="78" y1="400" x2="722" y2="400" transform="rotate(90, 400, 400)" opacity="0.08"></line><line x1="134" y1="400" x2="666" y2="400" transform="rotate(93, 400, 400)" opacity="0.15"></line><line x1="288" y1="400" x2="512" y2="400" transform="rotate(96, 400, 400)" opacity="0.78"></line><line x1="124.5" y1="400" x2="675.5" y2="400" transform="rotate(99, 400, 400)" opacity="0.12"></line><line x1="471.5" y1="400" x2="328.5" y2="400" transform="rotate(102, 400, 400)" opacity="0.77"></line><line x1="147" y1="400" x2="653" y2="400" transform="rotate(105, 400, 400)" opacity="0.91"></line><line x1="386.5" y1="400" x2="413.5" y2="400" transform="rotate(108, 400, 400)" opacity="0.65"></line><line x1="427" y1="400" x2="373" y2="400" transform="rotate(111, 400, 400)" opacity="0.23"></line><line x1="361" y1="400" x2="439" y2="400" transform="rotate(114, 400, 400)" opacity="0.69"></line><line x1="481" y1="400" x2="319" y2="400" transform="rotate(117, 400, 400)" opacity="0.36"></line><line x1="639.5" y1="400" x2="160.5" y2="400" transform="rotate(120, 400, 400)" opacity="0.15"></line><line x1="299.5" y1="400" x2="500.5" y2="400" transform="rotate(123, 400, 400)" opacity="0.17"></line><line x1="75" y1="400" x2="725" y2="400" transform="rotate(126, 400, 400)" opacity="0.67"></line><line x1="648.5" y1="400" x2="151.5" y2="400" transform="rotate(129, 400, 400)" opacity="0.31"></line><line x1="176.5" y1="400" x2="623.5" y2="400" transform="rotate(132, 400, 400)" opacity="0.35"></line><line x1="80" y1="400" x2="720" y2="400" transform="rotate(135, 400, 400)" opacity="0.58"></line><line x1="363.5" y1="400" x2="436.5" y2="400" transform="rotate(138, 400, 400)" opacity="0.18"></line><line x1="427" y1="400" x2="373" y2="400" transform="rotate(141, 400, 400)" opacity="0.89"></line><line x1="141.5" y1="400" x2="658.5" y2="400" transform="rotate(144, 400, 400)" opacity="0.42"></line><line x1="696" y1="400" x2="104" y2="400" transform="rotate(147, 400, 400)" opacity="0.78"></line><line x1="545.5" y1="400" x2="254.5" y2="400" transform="rotate(150, 400, 400)" opacity="0.59"></line><line x1="641" y1="400" x2="159" y2="400" transform="rotate(153, 400, 400)" opacity="0.57"></line><line x1="274.5" y1="400" x2="525.5" y2="400" transform="rotate(156, 400, 400)" opacity="0.20"></line><line x1="689" y1="400" x2="111" y2="400" transform="rotate(159, 400, 400)" opacity="0.20"></line><line x1="556" y1="400" x2="244" y2="400" transform="rotate(162, 400, 400)" opacity="0.19"></line><line x1="382" y1="400" x2="418" y2="400" transform="rotate(165, 400, 400)" opacity="0.26"></line><line x1="500" y1="400" x2="300" y2="400" transform="rotate(168, 400, 400)" opacity="0.43"></line><line x1="481.5" y1="400" x2="318.5" y2="400" transform="rotate(171, 400, 400)" opacity="0.90"></line><line x1="394.5" y1="400" x2="405.5" y2="400" transform="rotate(174, 400, 400)" opacity="0.60"></line><line x1="153" y1="400" x2="647" y2="400" transform="rotate(177, 400, 400)" opacity="0.34"></line><line x1="199.5" y1="400" x2="600.5" y2="400" transform="rotate(180, 400, 400)" opacity="0.62"></line><line x1="744" y1="400" x2="56" y2="400" transform="rotate(183, 400, 400)" opacity="0.20"></line><line x1="471.5" y1="400" x2="328.5" y2="400" transform="rotate(186, 400, 400)" opacity="0.91"></line><line x1="493.5" y1="400" x2="306.5" y2="400" transform="rotate(189, 400, 400)" opacity="0.88"></line><line x1="738.5" y1="400" x2="61.5" y2="400" transform="rotate(192, 400, 400)" opacity="0.86"></line><line x1="567" y1="400" x2="233" y2="400" transform="rotate(195, 400, 400)" opacity="0.35"></line><line x1="707.5" y1="400" x2="92.5" y2="400" transform="rotate(198, 400, 400)" opacity="0.75"></line><line x1="76.5" y1="400" x2="723.5" y2="400" transform="rotate(201, 400, 400)" opacity="0.44"></line><line x1="234" y1="400" x2="566" y2="400" transform="rotate(204, 400, 400)" opacity="0.32"></line><line x1="666" y1="400" x2="134" y2="400" transform="rotate(207, 400, 400)" opacity="0.14"></line><line x1="742" y1="400" x2="58" y2="400" transform="rotate(210, 400, 400)" opacity="0.50"></line><line x1="479" y1="400" x2="321" y2="400" transform="rotate(213, 400, 400)" opacity="0.81"></line><line x1="175.5" y1="400" x2="624.5" y2="400" transform="rotate(216, 400, 400)" opacity="0.20"></line><line x1="305.5" y1="400" x2="494.5" y2="400" transform="rotate(219, 400, 400)" opacity="0.16"></line><line x1="30.5" y1="400" x2="769.5" y2="400" transform="rotate(222, 400, 400)" opacity="0.75"></line><line x1="264" y1="400" x2="536" y2="400" transform="rotate(225, 400, 400)" opacity="0.11"></line><line x1="396.5" y1="400" x2="403.5" y2="400" transform="rotate(228, 400, 400)" opacity="0.23"></line><line x1="402.5" y1="400" x2="397.5" y2="400" transform="rotate(231, 400, 400)" opacity="0.18"></line><line x1="289.5" y1="400" x2="510.5" y2="400" transform="rotate(234, 400, 400)" opacity="0.87"></line><line x1="120" y1="400" x2="680" y2="400" transform="rotate(237, 400, 400)" opacity="0.97"></line><line x1="678.5" y1="400" x2="121.5" y2="400" transform="rotate(240, 400, 400)" opacity="0.55"></line><line x1="144" y1="400" x2="656" y2="400" transform="rotate(243, 400, 400)" opacity="0.09"></line><line x1="686.5" y1="400" x2="113.5" y2="400" transform="rotate(246, 400, 400)" opacity="0.95"></line><line x1="249" y1="400" x2="551" y2="400" transform="rotate(249, 400, 400)" opacity="0.19"></line><line x1="554.5" y1="400" x2="245.5" y2="400" transform="rotate(252, 400, 400)" opacity="0.31"></line><line x1="618" y1="400" x2="182" y2="400" transform="rotate(255, 400, 400)" opacity="0.58"></line><line x1="719.5" y1="400" x2="80.5" y2="400" transform="rotate(258, 400, 400)" opacity="0.71"></line><line x1="682.5" y1="400" x2="117.5" y2="400" transform="rotate(261, 400, 400)" opacity="0.44"></line><line x1="252" y1="400" x2="548" y2="400" transform="rotate(264, 400, 400)" opacity="0.75"></line><line x1="744" y1="400" x2="56" y2="400" transform="rotate(267, 400, 400)" opacity="0.19"></line><line x1="536" y1="400" x2="264" y2="400" transform="rotate(270, 400, 400)" opacity="0.09"></line><line x1="169" y1="400" x2="631" y2="400" transform="rotate(273, 400, 400)" opacity="0.13"></line><line x1="516.5" y1="400" x2="283.5" y2="400" transform="rotate(276, 400, 400)" opacity="0.21"></line><line x1="311" y1="400" x2="489" y2="400" transform="rotate(279, 400, 400)" opacity="0.52"></line><line x1="540" y1="400" x2="260" y2="400" transform="rotate(282, 400, 400)" opacity="0.37"></line><line x1="123.5" y1="400" x2="676.5" y2="400" transform="rotate(285, 400, 400)" opacity="0.67"></line><line x1="266" y1="400" x2="534" y2="400" transform="rotate(288, 400, 400)" opacity="0.17"></line><line x1="54" y1="400" x2="746" y2="400" transform="rotate(291, 400, 400)" opacity="0.07"></line><line x1="546" y1="400" x2="254" y2="400" transform="rotate(294, 400, 400)" opacity="0.60"></line><line x1="167" y1="400" x2="633" y2="400" transform="rotate(297, 400, 400)" opacity="0.50"></line><line x1="52.5" y1="400" x2="747.5" y2="400" transform="rotate(300, 400, 400)" opacity="0.43"></line><line x1="405.5" y1="400" x2="394.5" y2="400" transform="rotate(303, 400, 400)" opacity="0.46"></line><line x1="344.5" y1="400" x2="455.5" y2="400" transform="rotate(306, 400, 400)" opacity="0.13"></line><line x1="103.5" y1="400" x2="696.5" y2="400" transform="rotate(309, 400, 400)" opacity="0.29"></line><line x1="91" y1="400" x2="709" y2="400" transform="rotate(312, 400, 400)" opacity="0.60"></line><line x1="133.5" y1="400" x2="666.5" y2="400" transform="rotate(315, 400, 400)" opacity="0.61"></line></g></svg>